<mxfile host="app.diagrams.net" modified="2023-02-20T02:46:35.658Z" agent="5.0 (Windows NT 10.0; Win64; x64) AppleWebKit/537.36 (KHTML, like Gecko) Chrome/104.0.0.0 Safari/537.36" etag="DXjs_nACw1WZzRU6i_JF" version="20.8.20" type="github">
  <diagram name="第 1 页" id="VEtlKL6weH7U8Kpg_ALo">
    <mxGraphModel dx="989" dy="549" grid="1" gridSize="10" guides="1" tooltips="1" connect="1" arrows="1" fold="1" page="1" pageScale="1" pageWidth="827" pageHeight="1169" math="0" shadow="0">
      <root>
        <mxCell id="0" />
        <mxCell id="1" parent="0" />
        <mxCell id="W9EUrpbmbXxJEdGlso0Q-1" value="SnapshotAuto&lt;br&gt;TestMgr" style="shape=umlLifeline;perimeter=lifelinePerimeter;whiteSpace=wrap;html=1;container=0;dropTarget=0;collapsible=0;recursiveResize=0;outlineConnect=0;portConstraint=eastwest;newEdgeStyle={&quot;edgeStyle&quot;:&quot;elbowEdgeStyle&quot;,&quot;elbow&quot;:&quot;vertical&quot;,&quot;curved&quot;:0,&quot;rounded&quot;:0};" vertex="1" parent="1">
          <mxGeometry x="120" y="80" width="100" height="680" as="geometry" />
        </mxCell>
        <mxCell id="W9EUrpbmbXxJEdGlso0Q-7" value="" style="html=1;points=[];perimeter=orthogonalPerimeter;outlineConnect=0;targetShapes=umlLifeline;portConstraint=eastwest;newEdgeStyle={&quot;edgeStyle&quot;:&quot;elbowEdgeStyle&quot;,&quot;elbow&quot;:&quot;vertical&quot;,&quot;curved&quot;:0,&quot;rounded&quot;:0};" vertex="1" parent="W9EUrpbmbXxJEdGlso0Q-1">
          <mxGeometry x="45" y="60" width="10" height="600" as="geometry" />
        </mxCell>
        <mxCell id="W9EUrpbmbXxJEdGlso0Q-2" value="LoadSnapshot&lt;br&gt;Configure" style="shape=umlLifeline;perimeter=lifelinePerimeter;whiteSpace=wrap;html=1;container=0;dropTarget=0;collapsible=0;recursiveResize=0;outlineConnect=0;portConstraint=eastwest;newEdgeStyle={&quot;edgeStyle&quot;:&quot;elbowEdgeStyle&quot;,&quot;elbow&quot;:&quot;vertical&quot;,&quot;curved&quot;:0,&quot;rounded&quot;:0};" vertex="1" parent="1">
          <mxGeometry x="240" y="80" width="100" height="680" as="geometry" />
        </mxCell>
        <mxCell id="W9EUrpbmbXxJEdGlso0Q-8" value="" style="html=1;points=[];perimeter=orthogonalPerimeter;outlineConnect=0;targetShapes=umlLifeline;portConstraint=eastwest;newEdgeStyle={&quot;edgeStyle&quot;:&quot;elbowEdgeStyle&quot;,&quot;elbow&quot;:&quot;vertical&quot;,&quot;curved&quot;:0,&quot;rounded&quot;:0};" vertex="1" parent="W9EUrpbmbXxJEdGlso0Q-2">
          <mxGeometry x="45" y="60" width="10" height="600" as="geometry" />
        </mxCell>
        <mxCell id="W9EUrpbmbXxJEdGlso0Q-41" value="" style="html=1;points=[];perimeter=orthogonalPerimeter;outlineConnect=0;targetShapes=umlLifeline;portConstraint=eastwest;newEdgeStyle={&quot;edgeStyle&quot;:&quot;elbowEdgeStyle&quot;,&quot;elbow&quot;:&quot;vertical&quot;,&quot;curved&quot;:0,&quot;rounded&quot;:0};" vertex="1" parent="W9EUrpbmbXxJEdGlso0Q-2">
          <mxGeometry x="50" y="480" width="10" height="110" as="geometry" />
        </mxCell>
        <mxCell id="W9EUrpbmbXxJEdGlso0Q-42" value="构建预设战场" style="html=1;align=left;spacingLeft=2;endArrow=block;rounded=0;edgeStyle=orthogonalEdgeStyle;curved=0;rounded=0;" edge="1" target="W9EUrpbmbXxJEdGlso0Q-41" parent="W9EUrpbmbXxJEdGlso0Q-2">
          <mxGeometry relative="1" as="geometry">
            <mxPoint x="55" y="460" as="sourcePoint" />
            <Array as="points">
              <mxPoint x="85" y="490" />
            </Array>
          </mxGeometry>
        </mxCell>
        <mxCell id="W9EUrpbmbXxJEdGlso0Q-3" value="ICommand&lt;br&gt;Module" style="shape=umlLifeline;perimeter=lifelinePerimeter;whiteSpace=wrap;html=1;container=0;dropTarget=0;collapsible=0;recursiveResize=0;outlineConnect=0;portConstraint=eastwest;newEdgeStyle={&quot;edgeStyle&quot;:&quot;elbowEdgeStyle&quot;,&quot;elbow&quot;:&quot;vertical&quot;,&quot;curved&quot;:0,&quot;rounded&quot;:0};" vertex="1" parent="1">
          <mxGeometry x="360" y="80" width="100" height="680" as="geometry" />
        </mxCell>
        <mxCell id="W9EUrpbmbXxJEdGlso0Q-20" value="" style="html=1;points=[];perimeter=orthogonalPerimeter;outlineConnect=0;targetShapes=umlLifeline;portConstraint=eastwest;newEdgeStyle={&quot;edgeStyle&quot;:&quot;elbowEdgeStyle&quot;,&quot;elbow&quot;:&quot;vertical&quot;,&quot;curved&quot;:0,&quot;rounded&quot;:0};" vertex="1" parent="W9EUrpbmbXxJEdGlso0Q-3">
          <mxGeometry x="45" y="340" width="10" height="290" as="geometry" />
        </mxCell>
        <mxCell id="W9EUrpbmbXxJEdGlso0Q-4" value="CommandTimer" style="shape=umlLifeline;perimeter=lifelinePerimeter;whiteSpace=wrap;html=1;container=0;dropTarget=0;collapsible=0;recursiveResize=0;outlineConnect=0;portConstraint=eastwest;newEdgeStyle={&quot;edgeStyle&quot;:&quot;elbowEdgeStyle&quot;,&quot;elbow&quot;:&quot;vertical&quot;,&quot;curved&quot;:0,&quot;rounded&quot;:0};" vertex="1" parent="1">
          <mxGeometry x="480" y="80" width="100" height="680" as="geometry" />
        </mxCell>
        <mxCell id="W9EUrpbmbXxJEdGlso0Q-16" value="" style="html=1;points=[];perimeter=orthogonalPerimeter;outlineConnect=0;targetShapes=umlLifeline;portConstraint=eastwest;newEdgeStyle={&quot;edgeStyle&quot;:&quot;elbowEdgeStyle&quot;,&quot;elbow&quot;:&quot;vertical&quot;,&quot;curved&quot;:0,&quot;rounded&quot;:0};" vertex="1" parent="W9EUrpbmbXxJEdGlso0Q-4">
          <mxGeometry x="45" y="290" width="10" height="310" as="geometry" />
        </mxCell>
        <mxCell id="W9EUrpbmbXxJEdGlso0Q-5" value="ResSnapshot" style="shape=umlLifeline;perimeter=lifelinePerimeter;whiteSpace=wrap;html=1;container=0;dropTarget=0;collapsible=0;recursiveResize=0;outlineConnect=0;portConstraint=eastwest;newEdgeStyle={&quot;edgeStyle&quot;:&quot;elbowEdgeStyle&quot;,&quot;elbow&quot;:&quot;vertical&quot;,&quot;curved&quot;:0,&quot;rounded&quot;:0};" vertex="1" parent="1">
          <mxGeometry x="600" y="80" width="100" height="680" as="geometry" />
        </mxCell>
        <mxCell id="W9EUrpbmbXxJEdGlso0Q-24" value="" style="html=1;points=[];perimeter=orthogonalPerimeter;outlineConnect=0;targetShapes=umlLifeline;portConstraint=eastwest;newEdgeStyle={&quot;edgeStyle&quot;:&quot;elbowEdgeStyle&quot;,&quot;elbow&quot;:&quot;vertical&quot;,&quot;curved&quot;:0,&quot;rounded&quot;:0};" vertex="1" parent="W9EUrpbmbXxJEdGlso0Q-5">
          <mxGeometry x="45" y="90" width="10" height="180" as="geometry" />
        </mxCell>
        <mxCell id="W9EUrpbmbXxJEdGlso0Q-6" value="proto" style="shape=umlLifeline;perimeter=lifelinePerimeter;whiteSpace=wrap;html=1;container=0;dropTarget=0;collapsible=0;recursiveResize=0;outlineConnect=0;portConstraint=eastwest;newEdgeStyle={&quot;edgeStyle&quot;:&quot;elbowEdgeStyle&quot;,&quot;elbow&quot;:&quot;vertical&quot;,&quot;curved&quot;:0,&quot;rounded&quot;:0};" vertex="1" parent="1">
          <mxGeometry x="720" y="80" width="100" height="680" as="geometry" />
        </mxCell>
        <mxCell id="W9EUrpbmbXxJEdGlso0Q-27" value="" style="html=1;points=[];perimeter=orthogonalPerimeter;outlineConnect=0;targetShapes=umlLifeline;portConstraint=eastwest;newEdgeStyle={&quot;edgeStyle&quot;:&quot;elbowEdgeStyle&quot;,&quot;elbow&quot;:&quot;vertical&quot;,&quot;curved&quot;:0,&quot;rounded&quot;:0};" vertex="1" parent="W9EUrpbmbXxJEdGlso0Q-6">
          <mxGeometry x="45" y="90" width="10" height="90" as="geometry" />
        </mxCell>
        <mxCell id="W9EUrpbmbXxJEdGlso0Q-10" style="edgeStyle=elbowEdgeStyle;rounded=0;orthogonalLoop=1;jettySize=auto;html=1;elbow=vertical;curved=0;" edge="1" parent="1" source="W9EUrpbmbXxJEdGlso0Q-7" target="W9EUrpbmbXxJEdGlso0Q-8">
          <mxGeometry relative="1" as="geometry">
            <mxPoint x="300" y="150" as="targetPoint" />
            <Array as="points">
              <mxPoint x="180" y="160" />
              <mxPoint x="300" y="150" />
            </Array>
          </mxGeometry>
        </mxCell>
        <mxCell id="W9EUrpbmbXxJEdGlso0Q-14" value="请求配置&lt;br&gt;快照文件" style="text;html=1;strokeColor=none;fillColor=none;align=center;verticalAlign=middle;whiteSpace=wrap;rounded=0;" vertex="1" parent="1">
          <mxGeometry x="180" y="130" width="100" height="30" as="geometry" />
        </mxCell>
        <mxCell id="W9EUrpbmbXxJEdGlso0Q-19" value="return" style="html=1;verticalAlign=bottom;endArrow=open;dashed=1;endSize=8;edgeStyle=elbowEdgeStyle;elbow=vertical;curved=0;rounded=0;" edge="1" parent="1" source="W9EUrpbmbXxJEdGlso0Q-16" target="W9EUrpbmbXxJEdGlso0Q-8">
          <mxGeometry relative="1" as="geometry">
            <mxPoint x="560" y="410" as="sourcePoint" />
            <mxPoint x="315" y="400" as="targetPoint" />
            <Array as="points">
              <mxPoint x="450" y="410" />
              <mxPoint x="490" y="400" />
            </Array>
          </mxGeometry>
        </mxCell>
        <mxCell id="W9EUrpbmbXxJEdGlso0Q-21" value="构建指令" style="html=1;verticalAlign=bottom;endArrow=block;edgeStyle=elbowEdgeStyle;elbow=vertical;curved=0;rounded=0;" edge="1" parent="1" source="W9EUrpbmbXxJEdGlso0Q-8" target="W9EUrpbmbXxJEdGlso0Q-20">
          <mxGeometry width="80" relative="1" as="geometry">
            <mxPoint x="315" y="444.79310344827593" as="sourcePoint" />
            <mxPoint x="420" y="440" as="targetPoint" />
            <Array as="points">
              <mxPoint x="340" y="440" />
            </Array>
          </mxGeometry>
        </mxCell>
        <mxCell id="W9EUrpbmbXxJEdGlso0Q-22" value="设定执行时间" style="html=1;verticalAlign=bottom;endArrow=block;edgeStyle=elbowEdgeStyle;elbow=vertical;curved=0;rounded=0;" edge="1" parent="1" source="W9EUrpbmbXxJEdGlso0Q-20" target="W9EUrpbmbXxJEdGlso0Q-16">
          <mxGeometry width="80" relative="1" as="geometry">
            <mxPoint x="460" y="460" as="sourcePoint" />
            <mxPoint x="540" y="460" as="targetPoint" />
            <Array as="points">
              <mxPoint x="500" y="460" />
            </Array>
          </mxGeometry>
        </mxCell>
        <mxCell id="W9EUrpbmbXxJEdGlso0Q-23" value="return" style="html=1;verticalAlign=bottom;endArrow=open;dashed=1;endSize=8;edgeStyle=elbowEdgeStyle;elbow=vertical;curved=0;rounded=0;" edge="1" parent="1" source="W9EUrpbmbXxJEdGlso0Q-16" target="W9EUrpbmbXxJEdGlso0Q-20">
          <mxGeometry relative="1" as="geometry">
            <mxPoint x="570" y="490" as="sourcePoint" />
            <mxPoint x="490" y="490" as="targetPoint" />
            <Array as="points">
              <mxPoint x="500" y="490" />
            </Array>
          </mxGeometry>
        </mxCell>
        <mxCell id="W9EUrpbmbXxJEdGlso0Q-25" value="获取配置文件信息" style="html=1;verticalAlign=bottom;endArrow=block;edgeStyle=elbowEdgeStyle;elbow=vertical;curved=0;rounded=0;" edge="1" parent="1" source="W9EUrpbmbXxJEdGlso0Q-8" target="W9EUrpbmbXxJEdGlso0Q-24">
          <mxGeometry width="80" relative="1" as="geometry">
            <mxPoint x="340" y="190" as="sourcePoint" />
            <mxPoint x="420" y="190" as="targetPoint" />
            <Array as="points">
              <mxPoint x="560" y="280" />
              <mxPoint x="410" y="230" />
              <mxPoint x="670" y="190" />
            </Array>
          </mxGeometry>
        </mxCell>
        <mxCell id="W9EUrpbmbXxJEdGlso0Q-26" value="return" style="html=1;verticalAlign=bottom;endArrow=open;dashed=1;endSize=8;edgeStyle=elbowEdgeStyle;elbow=vertical;curved=0;rounded=0;" edge="1" parent="1" source="W9EUrpbmbXxJEdGlso0Q-24" target="W9EUrpbmbXxJEdGlso0Q-8">
          <mxGeometry relative="1" as="geometry">
            <mxPoint x="724.9999999999998" y="340" as="sourcePoint" />
            <mxPoint x="315" y="340" as="targetPoint" />
            <Array as="points">
              <mxPoint x="410" y="340" />
              <mxPoint x="650" y="290" />
            </Array>
          </mxGeometry>
        </mxCell>
        <mxCell id="W9EUrpbmbXxJEdGlso0Q-28" value="通过PB协议生成&lt;br&gt;Res java文件" style="html=1;verticalAlign=bottom;endArrow=block;edgeStyle=elbowEdgeStyle;elbow=vertical;curved=0;rounded=0;" edge="1" target="W9EUrpbmbXxJEdGlso0Q-24" parent="1" source="W9EUrpbmbXxJEdGlso0Q-27">
          <mxGeometry relative="1" as="geometry">
            <mxPoint x="945" y="190" as="targetPoint" />
            <Array as="points">
              <mxPoint x="720" y="190" />
              <mxPoint x="740" y="210" />
              <mxPoint x="730" y="200" />
            </Array>
          </mxGeometry>
        </mxCell>
        <mxCell id="W9EUrpbmbXxJEdGlso0Q-30" value="File System" style="shape=umlLifeline;perimeter=lifelinePerimeter;whiteSpace=wrap;html=1;container=0;dropTarget=0;collapsible=0;recursiveResize=0;outlineConnect=0;portConstraint=eastwest;newEdgeStyle={&quot;edgeStyle&quot;:&quot;elbowEdgeStyle&quot;,&quot;elbow&quot;:&quot;vertical&quot;,&quot;curved&quot;:0,&quot;rounded&quot;:0};" vertex="1" parent="1">
          <mxGeometry x="840" y="80" width="100" height="680" as="geometry" />
        </mxCell>
        <mxCell id="W9EUrpbmbXxJEdGlso0Q-31" value="" style="html=1;points=[];perimeter=orthogonalPerimeter;outlineConnect=0;targetShapes=umlLifeline;portConstraint=eastwest;newEdgeStyle={&quot;edgeStyle&quot;:&quot;elbowEdgeStyle&quot;,&quot;elbow&quot;:&quot;vertical&quot;,&quot;curved&quot;:0,&quot;rounded&quot;:0};" vertex="1" parent="W9EUrpbmbXxJEdGlso0Q-30">
          <mxGeometry x="45" y="100" width="10" height="180" as="geometry" />
        </mxCell>
        <mxCell id="W9EUrpbmbXxJEdGlso0Q-32" value="excel文件转换" style="html=1;verticalAlign=bottom;endArrow=block;edgeStyle=elbowEdgeStyle;elbow=vertical;curved=0;rounded=0;" edge="1" parent="1" source="W9EUrpbmbXxJEdGlso0Q-31" target="W9EUrpbmbXxJEdGlso0Q-27">
          <mxGeometry width="80" relative="1" as="geometry">
            <mxPoint x="900" y="240" as="sourcePoint" />
            <mxPoint x="980" y="240" as="targetPoint" />
            <Array as="points">
              <mxPoint x="860" y="200" />
              <mxPoint x="890" y="230" />
              <mxPoint x="930" y="260" />
            </Array>
          </mxGeometry>
        </mxCell>
        <mxCell id="W9EUrpbmbXxJEdGlso0Q-34" value="PB配置文件" style="html=1;verticalAlign=bottom;endArrow=open;dashed=1;endSize=8;edgeStyle=elbowEdgeStyle;elbow=vertical;curved=0;rounded=0;" edge="1" parent="1" source="W9EUrpbmbXxJEdGlso0Q-27" target="W9EUrpbmbXxJEdGlso0Q-31">
          <mxGeometry relative="1" as="geometry">
            <mxPoint x="970" y="310" as="sourcePoint" />
            <mxPoint x="890" y="310" as="targetPoint" />
            <Array as="points">
              <mxPoint x="850" y="230" />
            </Array>
          </mxGeometry>
        </mxCell>
        <mxCell id="W9EUrpbmbXxJEdGlso0Q-35" value="按协议格式读取配置信息" style="html=1;verticalAlign=bottom;endArrow=block;edgeStyle=elbowEdgeStyle;elbow=vertical;curved=0;rounded=0;" edge="1" parent="1" source="W9EUrpbmbXxJEdGlso0Q-24" target="W9EUrpbmbXxJEdGlso0Q-31">
          <mxGeometry width="80" relative="1" as="geometry">
            <mxPoint x="780" y="290" as="sourcePoint" />
            <mxPoint x="860" y="290" as="targetPoint" />
            <Array as="points">
              <mxPoint x="820" y="300" />
              <mxPoint x="840" y="290" />
            </Array>
          </mxGeometry>
        </mxCell>
        <mxCell id="W9EUrpbmbXxJEdGlso0Q-36" value="return" style="html=1;verticalAlign=bottom;endArrow=open;dashed=1;endSize=8;edgeStyle=elbowEdgeStyle;elbow=vertical;curved=0;rounded=0;" edge="1" parent="1" source="W9EUrpbmbXxJEdGlso0Q-31" target="W9EUrpbmbXxJEdGlso0Q-24">
          <mxGeometry relative="1" as="geometry">
            <mxPoint x="910" y="330" as="sourcePoint" />
            <mxPoint x="830" y="330" as="targetPoint" />
            <Array as="points">
              <mxPoint x="800" y="330" />
            </Array>
          </mxGeometry>
        </mxCell>
        <mxCell id="W9EUrpbmbXxJEdGlso0Q-38" value="构建计时器" style="html=1;verticalAlign=bottom;endArrow=block;edgeStyle=elbowEdgeStyle;elbow=vertical;curved=0;rounded=0;" edge="1" parent="1" source="W9EUrpbmbXxJEdGlso0Q-8" target="W9EUrpbmbXxJEdGlso0Q-16">
          <mxGeometry width="80" relative="1" as="geometry">
            <mxPoint x="300" y="370" as="sourcePoint" />
            <mxPoint x="380" y="370" as="targetPoint" />
            <Array as="points">
              <mxPoint x="450" y="380" />
            </Array>
          </mxGeometry>
        </mxCell>
        <mxCell id="W9EUrpbmbXxJEdGlso0Q-39" value="return" style="html=1;verticalAlign=bottom;endArrow=open;dashed=1;endSize=8;edgeStyle=elbowEdgeStyle;elbow=vertical;curved=0;rounded=0;" edge="1" parent="1" source="W9EUrpbmbXxJEdGlso0Q-20" target="W9EUrpbmbXxJEdGlso0Q-8">
          <mxGeometry relative="1" as="geometry">
            <mxPoint x="390" y="510" as="sourcePoint" />
            <mxPoint x="310" y="510" as="targetPoint" />
            <Array as="points">
              <mxPoint x="380" y="510" />
              <mxPoint x="330" y="520" />
            </Array>
          </mxGeometry>
        </mxCell>
        <mxCell id="W9EUrpbmbXxJEdGlso0Q-43" value="构建指令" style="html=1;verticalAlign=bottom;endArrow=block;edgeStyle=elbowEdgeStyle;elbow=vertical;curved=0;rounded=0;" edge="1" parent="1" source="W9EUrpbmbXxJEdGlso0Q-41" target="W9EUrpbmbXxJEdGlso0Q-20">
          <mxGeometry width="80" relative="1" as="geometry">
            <mxPoint x="290" y="600" as="sourcePoint" />
            <mxPoint x="400" y="600" as="targetPoint" />
            <Array as="points">
              <mxPoint x="340" y="590" />
              <mxPoint x="335" y="600" />
            </Array>
          </mxGeometry>
        </mxCell>
        <mxCell id="W9EUrpbmbXxJEdGlso0Q-44" value="设定执行时间" style="html=1;verticalAlign=bottom;endArrow=block;edgeStyle=elbowEdgeStyle;elbow=vertical;curved=0;rounded=0;" edge="1" parent="1">
          <mxGeometry width="80" relative="1" as="geometry">
            <mxPoint x="414" y="610" as="sourcePoint" />
            <mxPoint x="524" y="610" as="targetPoint" />
            <Array as="points">
              <mxPoint x="499" y="610" />
            </Array>
          </mxGeometry>
        </mxCell>
        <mxCell id="W9EUrpbmbXxJEdGlso0Q-45" value="return" style="html=1;verticalAlign=bottom;endArrow=open;dashed=1;endSize=8;edgeStyle=elbowEdgeStyle;elbow=vertical;curved=0;rounded=0;" edge="1" parent="1">
          <mxGeometry relative="1" as="geometry">
            <mxPoint x="524" y="640" as="sourcePoint" />
            <mxPoint x="414" y="640" as="targetPoint" />
            <Array as="points">
              <mxPoint x="499" y="640" />
            </Array>
          </mxGeometry>
        </mxCell>
        <mxCell id="W9EUrpbmbXxJEdGlso0Q-46" value="return" style="html=1;verticalAlign=bottom;endArrow=open;dashed=1;endSize=8;edgeStyle=elbowEdgeStyle;elbow=vertical;curved=0;rounded=0;" edge="1" parent="1" source="W9EUrpbmbXxJEdGlso0Q-20" target="W9EUrpbmbXxJEdGlso0Q-41">
          <mxGeometry relative="1" as="geometry">
            <mxPoint x="410" y="660" as="sourcePoint" />
            <mxPoint x="300" y="660" as="targetPoint" />
            <Array as="points">
              <mxPoint x="335" y="660" />
            </Array>
          </mxGeometry>
        </mxCell>
        <mxCell id="W9EUrpbmbXxJEdGlso0Q-47" value="return" style="html=1;verticalAlign=bottom;endArrow=open;dashed=1;endSize=8;edgeStyle=elbowEdgeStyle;elbow=vertical;curved=0;rounded=0;" edge="1" parent="1" source="W9EUrpbmbXxJEdGlso0Q-8" target="W9EUrpbmbXxJEdGlso0Q-7">
          <mxGeometry relative="1" as="geometry">
            <mxPoint x="270" y="690" as="sourcePoint" />
            <mxPoint x="190" y="690" as="targetPoint" />
            <Array as="points">
              <mxPoint x="250" y="700" />
            </Array>
          </mxGeometry>
        </mxCell>
      </root>
    </mxGraphModel>
  </diagram>
</mxfile>
